PathFileType	4	(X/Y/Z)	Patient4_TMGait_0pt6_02_left_24.trc.trc
DataRate	CameraRate	NumFrames	NumMarkers	Units	OrigDataRate	OrigDataStartFrame	OrigNumFrames
80.459770114943	80.459770114943	4	33	mm	80.459770114943	89	       141
Frame#	Time	Sacral			L.Shoulder			Chest			R.Shoulder			Neck			R.ASIS			L.ASIS			R.Thigh.Superior			R.Thigh.Lateral			R.Thigh.Inferior			R.Patella			L.Thigh.Superior			L.Thigh.Lateral			L.Thigh.Inferior			L.Patella			L.Shank.Superior			L.Shank.Lateral			L.Shank.Inferior			R.Shank.Superior			R.Shank.Lateral			R.Shank.Inferior			R.Heel			R.Midfoot.Superior			R.Midfoot.Lateral			R.Toe			L.Heel			L.Midfoot.Lateral			L.Midfoot.Superior			L.Toe			L.Elbow			L.Wrist			R.Elbow			R.Wrist			
		X1	Y1	Z1	X2	Y2	Z2	X3	Y3	Z3	X4	Y4	Z4	X5	Y5	Z5	X6	Y6	Z6	X7	Y7	Z7	X8	Y8	Z8	X9	Y9	Z9	X10	Y10	Z10	X11	Y11	Z11	X12	Y12	Z12	X13	Y13	Z13	X14	Y14	Z14	X15	Y15	Z15	X16	Y16	Z16	X17	Y17	Z17	X18	Y18	Z18	X19	Y19	Z19	X20	Y20	Z20	X21	Y21	Z21	X22	Y22	Z22	X23	Y23	Z23	X24	Y24	Z24	X25	Y25	Z25	X26	Y26	Z26	X27	Y27	Z27	X28	Y28	Z28	X29	Y29	Z29	X30	Y30	Z30	X31	Y31	Z31	X32	Y32	Z32	X33	Y33	Z33	

89	30.433714285714	860.897896289866	1006.500547846227	462.171520219864	1051.396506138555	1433.095052603074	278.485323978060	1159.698055637790	1350.500366861283	429.164963300930	1092.261527915237	1427.651943777757	607.410238905644	1066.563309581750	1487.844129001268	429.843806575312	1094.383553494452	935.829059293373	563.770830937364	1060.773477385152	957.553477833281	291.714941040946	1148.744096535211	746.149903393672	535.100397758883	1078.318648293555	632.638040662414	596.090558316462	1158.071792682445	588.585316953319	513.207746026904	1167.176316818544	502.354760346293	519.745846383127	1099.280359020167	738.854875391606	308.324461770874	1005.732729286287	626.885154945814	248.161010782992	1093.918482904588	538.727410899639	298.719200133474	1082.513711195860	452.438519949705	295.388979067791	1009.570229010905	398.782153361511	294.741817064054	863.564588930726	365.374096467535	255.940694036647	845.374992827791	238.501232177197	313.487025197013	1150.727965695944	411.992400088243	528.034535624274	1091.495059479568	299.767407526219	587.507818898773	1147.315310754627	211.597130820953	525.003098080979	1032.007676221361	40.494421597999	491.917242094647	1201.859759179894	98.889332197231	524.904701954529	1116.293709715586	36.791425871519	565.810840805595	1323.556036269917	49.290038016140	550.928178271841	654.396957207746	185.277539216548	364.125359753068	703.319114807808	136.759270837056	280.416111861708	809.023222086337	137.919082635412	294.925261646146	877.597563853137	31.099126838353	262.492057235953	980.912922123728	1089.552713341683	156.168514125041	1179.164657873807	920.907483206696	162.365720111108	1024.574397652522	1087.108153529824	731.022349259348	1111.192466680790	840.021240763927	716.272490206819	
90	30.446142857143	861.413272703123	1007.384990030757	465.255455771596	1051.053910009052	1433.650470557381	280.454054488338	1160.490263113451	1351.060193849977	430.328552185064	1094.436543171409	1428.186414081860	609.142449691280	1067.459664307751	1488.428298560549	431.820187569399	1095.077354956822	936.499290436342	565.354308186490	1060.289405409868	957.623031741924	293.628424530001	1147.033436218846	745.116955294506	537.185135153589	1075.629524142647	632.743397296585	598.046553192632	1154.261661680317	587.820186995211	514.548502323527	1162.484210885123	501.681618957532	520.911472923660	1104.966898506164	742.265898114603	310.895779215810	1016.543614869065	627.829561342630	249.345921898000	1107.216164684054	541.969443051238	300.660745853433	1097.440565283602	454.502124078597	296.702892343959	1023.059886617451	400.685390247291	295.774967790219	876.074168338534	371.528256253800	256.635225203140	854.084331105451	245.202545555415	314.097717955650	1145.485460282827	411.520700621121	529.094005927443	1085.741879844415	299.508881398754	588.261838057368	1140.793690681198	211.221593019795	525.420355716391	1024.600697247161	40.457696767402	492.000447899582	1194.473344970194	98.864488597368	524.994874572528	1108.838733987620	36.708469028293	565.921216768341	1316.128297576926	49.130649803587	551.066440322606	661.495847521870	199.940927155714	364.384586548649	708.408895180274	149.079869296940	280.665274313269	814.413169132698	144.899903708885	295.444551918546	877.406387404977	32.102190517103	262.825899809993	977.578698743732	1090.063351974115	159.552432007090	1166.646946075384	910.251194149426	165.632051325126	1033.767055564107	1086.675516211144	734.437996310714	1131.821041559558	844.266112595132	715.848853523387	
91	30.458571428571	861.724803828768	1008.138941156965	468.155434788942	1050.510296979069	1433.988092194747	282.212261236533	1161.128412804826	1351.398883451954	431.242981604386	1096.568030873604	1428.561242075765	610.653320039100	1068.243620059617	1488.848833758589	433.548910809868	1095.531933076604	937.010347122757	566.899986638767	1059.672855411062	957.498466360021	295.461845070880	1145.277673557535	744.199502958053	539.175798610339	1072.979772601452	632.804149985256	599.943883580964	1150.587477148197	587.087758852296	515.913200685077	1157.918278886547	501.025476573259	522.105783186947	1110.313125724299	745.863284264952	313.618228070687	1027.095101804646	629.242310646072	250.526897120105	1120.035164765565	545.786339700241	302.722232796878	1112.107086062112	457.255161049370	298.159831148128	1036.645306848494	403.055889925324	296.864150614720	888.937862874153	377.404008669433	257.377638803953	863.810720080409	251.563646627958	314.762391170030	1140.363052956167	411.030050329436	530.119916472792	1080.122268101943	299.246756103086	589.046904750132	1134.335397820639	210.825434877669	525.814182824628	1017.163555087855	40.456461052125	492.084789825616	1187.115145835846	98.779682562054	525.067482026914	1101.363914420173	36.635046458056	566.027223044862	1308.703075514179	48.811924065310	551.183470075447	670.051009192580	212.735200303378	364.625149471619	715.390486632027	160.103424709630	280.918733433148	821.486828280305	151.635139740384	296.033112298859	879.899189265242	33.836839434495	263.233197949835	974.156560471001	1090.339669914011	162.698052317350	1153.362819752578	900.056629363744	168.877908490461	1043.175475410792	1086.271037830775	737.672738549346	1152.637266658990	849.291028036326	715.030453894493	
92	30.471000000000	861.831233731631	1008.801783712526	470.862026777215	1049.847229897457	1434.167571005577	283.767559862024	1161.630224380628	1351.552951854102	431.944489318630	1098.644276677948	1428.831880888927	611.946478739556	1068.949984247894	1489.153185578912	435.030113254488	1095.758368690859	937.415233752976	568.447585755104	1058.962784146586	957.292091884246	297.239808014096	1143.557832950758	743.443322141749	541.080868342589	1070.389756764354	632.845164256757	601.747622671536	1147.116963677967	586.410294336698	517.300350215599	1153.539023292186	500.399495147182	523.300401515304	1115.234897202747	749.661913392809	316.460105136057	1037.219306560312	631.156573244717	251.689563548067	1132.241869430251	550.177342029699	304.788816019640	1126.369970784632	460.713546454343	299.619172729439	1050.207606651053	405.892483766306	297.923682683186	902.005845177324	382.840747702485	258.137620220521	874.566164053403	257.348782626174	315.426329983700	1135.404204004502	410.540409172652	531.099530341082	1074.647970339666	299.014397394488	589.850617193291	1127.952383757429	210.428037942867	526.187019931307	1009.700770202369	40.486954108888	492.179680361985	1179.775545878902	98.647927869802	525.142703833098	1093.876688675754	36.582474055085	566.136210441282	1301.278476687119	48.386809862299	551.290506098249	680.020323042004	223.133769302263	364.843194440771	724.305565900600	169.324250980849	281.168228696639	830.368118447369	157.792780310649	296.637861470040	885.444665079279	36.187530629913	263.684880954438	970.623398486164	1090.454843199025	165.684381638485	1139.277859275203	890.350494681844	172.033642461449	1052.804784812887	1085.941050218615	740.658424593696	1173.543280571114	855.157073984585	713.787327692808	
